<?xml version="1.0" encoding="UTF-8" standalone="no" ?>
<!DOCTYPE svg PUBLIC "-//W3C//DTD SVG 1.1//EN" "http://www.w3.org/Graphics/SVG/1.1/DTD/svg11.dtd">
<svg xmlns="http://www.w3.org/2000/svg" xmlns:xlink="http://www.w3.org/1999/xlink" version="1.1" width="1080" height="1080" viewBox="0 0 1080 1080" xml:space="preserve">
<desc>Created with Fabric.js 5.2.4</desc>
<defs>
</defs>
<rect x="0" y="0" width="100%" height="100%" fill="transparent"></rect>
<g transform="matrix(1 0 0 1 540 540)" id="20b2beea-a25c-4ba8-9069-2de3eb2adeb6"  >
<rect style="stroke: none; stroke-width: 1; stroke-dasharray: none; stroke-linecap: butt; stroke-dashoffset: 0; stroke-linejoin: miter; stroke-miterlimit: 4; fill: rgb(255,255,255); fill-rule: nonzero; opacity: 1; visibility: hidden;" vector-effect="non-scaling-stroke"  x="-540" y="-540" rx="0" ry="0" width="1080" height="1080" />
</g>
<g transform="matrix(1 0 0 1 540 540)" id="d988dab0-8914-4477-acc8-067c55cf6c11"  >
</g>
<g transform="matrix(0.61 0 0 0.61 468.75 572.31)"  >
<g style="" vector-effect="non-scaling-stroke"   >
		<g transform="matrix(0.63 0 0 0.63 0 -136.56)"  >
<path style="stroke: none; stroke-width: 1; stroke-dasharray: none; stroke-linecap: butt; stroke-dashoffset: 0; stroke-linejoin: miter; stroke-miterlimit: 4; fill: rgb(255,255,255); fill-rule: nonzero; opacity: 1;" vector-effect="non-scaling-stroke"  transform=" translate(599, -632.5)" d="M 0 0 L 25 0 L 42 4 L 58 12 L 69 19 L 95 39 L 113 53 L 126 63 L 144 77 L 161 90 L 179 104 L 196 117 L 214 131 L 231 144 L 267 172 L 293 192 L 311 206 L 337 226 L 355 240 L 371 252 L 386 264 L 397 273 L 407 284 L 415 297 L 421 310 L 423 316 L 423 320 L 425 320 L 425 361 L 423 363 L 419 375 L 411 391 L 402 403 L 400 403 L 398 407 L 390 414 L 351 444 L 334 457 L 320 468 L 307 478 L 290 491 L 276 502 L 255 518 L 241 529 L 228 539 L 211 552 L 197 563 L 184 573 L 167 586 L 153 597 L 123 620 L 106 633 L 92 644 L 79 654 L 61 667 L 45 675 L 31 679 L 19 681 L 5 681 L -15 677 L -31 670 L -41 664 L -54 653 L -63 643 L -73 626 L -78 611 L -80 602 L -81 588 L -79 568 L -65 471 L -62 459 L -58 451 L -54 446 L -45 440 L -37 437 L -23 437 L -12 441 L -2 450 L 3 458 L 5 465 L 5 479 L -3 534 L -10 582 L -10 593 L -5 603 L 1 608 L 7 610 L 17 610 L 29 604 L 83 562 L 113 539 L 131 525 L 170 495 L 188 481 L 205 468 L 241 440 L 257 428 L 272 416 L 288 404 L 303 392 L 315 383 L 341 363 L 348 357 L 350 357 L 352 353 L 355 345 L 355 335 L 350 325 L 341 317 L 325 305 L 310 293 L 298 284 L 285 274 L 267 260 L 250 247 L 237 237 L 219 223 L 180 193 L 162 179 L 149 169 L 135 158 L 118 145 L 92 125 L 74 111 L 61 101 L 43 87 L 30 77 L 20 71 L 17 70 L 8 70 L 0 73 L -5 77 L -9 84 L -10 88 L -10 98 L 3 187 L 5 202 L 5 212 L 2 221 L -3 229 L -12 237 L -23 241 L -120 243 L -163 246 L -196 250 L -228 255 L -266 263 L -304 273 L -342 285 L -372 296 L -396 306 L -425 319 L -459 336 L -482 349 L -510 366 L -522 374 L -544 389 L -572 410 L -588 423 L -601 434 L -611 443 L -619 450 L -632 462 L -663 493 L -664 495 L -666 495 L -668 499 L -681 513 L -690 524 L -702 538 L -712 551 L -721 563 L -734 581 L -744 596 L -755 613 L -767 633 L -779 654 L -794 683 L -806 708 L -824 749 L -833 770 L -851 811 L -864 841 L -873 862 L -890 901 L -902 928 L -913 951 L -926 974 L -934 988 L -946 1007 L -958 1024 L -974 1045 L -983 1056 L -994 1069 L -1006 1082 L -1013 1089 L -1018 1095 L -1026 1102 L -1039 1115 L -1047 1122 L -1058 1131 L -1070 1141 L -1086 1153 L -1103 1165 L -1120 1176 L -1140 1188 L -1162 1200 L -1178 1208 L -1197 1217 L -1230 1230 L -1263 1241 L -1297 1250 L -1333 1257 L -1369 1262 L -1411 1265 L -1593 1265 L -1601 1263 L -1610 1258 L -1615 1253 L -1619 1248 L -1623 1241 L -1623 1219 L -1614 1206 L -1606 1200 L -1596 1196 L -1418 1195 L -1384 1193 L -1351 1189 L -1315 1182 L -1288 1175 L -1252 1163 L -1224 1152 L -1195 1138 L -1178 1129 L -1161 1119 L -1134 1101 L -1118 1089 L -1104 1078 L -1090 1066 L -1078 1055 L -1069 1046 L -1067 1046 L -1065 1042 L -1063 1042 L -1061 1038 L -1051 1028 L -1050 1026 L -1048 1026 L -1046 1022 L -1034 1008 L -1033 1006 L -1031 1006 L -1029 1002 L -1014 982 L -998 958 L -986 938 L -977 922 L -966 899 L -953 870 L -941 842 L -923 801 L -897 741 L -869 677 L -853 644 L -838 615 L -822 588 L -807 564 L -797 549 L -786 533 L -772 514 L -761 500 L -748 484 L -739 473 L -737 470 L -735 470 L -733 466 L -722 454 L -715 446 L -700 430 L -680 410 L -672 403 L -667 398 L -665 398 L -665 396 L -654 387 L -641 375 L -627 364 L -611 351 L -592 337 L -575 325 L -557 313 L -535 299 L -511 285 L -487 272 L -455 256 L -429 244 L -402 233 L -366 220 L -342 212 L -299 200 L -265 192 L -222 184 L -186 179 L -147 175 L -114 173 L -86 172 L -70 172 L -74 148 L -80 105 L -81 91 L -79 74 L -74 57 L -66 42 L -57 30 L -55 30 L -53 26 L -42 17 L -29 9 L -14 3 z" stroke-linecap="round" />
</g>
		<g transform="matrix(0.63 0 0 0.63 308.75 319.06)"  >
<path style="stroke: none; stroke-width: 1; stroke-dasharray: none; stroke-linecap: butt; stroke-dashoffset: 0; stroke-linejoin: miter; stroke-miterlimit: 4; fill: rgb(255,255,255); fill-rule: nonzero; opacity: 1;" vector-effect="non-scaling-stroke"  transform=" translate(108, -340.5)" d="M 0 0 L 20 0 L 35 3 L 50 9 L 66 19 L 81 31 L 101 46 L 116 58 L 133 71 L 151 85 L 168 98 L 186 112 L 216 135 L 252 163 L 268 175 L 283 187 L 295 196 L 331 224 L 348 237 L 374 257 L 388 268 L 398 277 L 408 290 L 416 306 L 420 317 L 422 322 L 422 360 L 419 367 L 414 380 L 408 391 L 398 404 L 385 416 L 373 425 L 347 445 L 333 456 L 321 465 L 303 479 L 286 492 L 268 506 L 251 519 L 241 527 L 228 537 L 211 550 L 197 561 L 176 577 L 163 587 L 145 601 L 124 617 L 110 628 L 97 638 L 79 652 L 64 663 L 51 671 L 37 677 L 18 681 L 1 681 L -15 678 L -31 672 L -46 663 L -59 651 L -68 640 L -76 626 L -81 611 L -83 602 L -84 587 L -81 561 L -73 508 L -115 508 L -170 504 L -210 499 L -247 493 L -280 486 L -324 475 L -357 465 L -392 453 L -429 438 L -462 423 L -494 407 L -517 394 L -544 378 L -577 356 L -594 344 L -615 328 L -625 320 L -632 312 L -637 302 L -638 291 L -635 280 L -630 272 L -625 267 L -616 261 L -609 259 L -596 259 L -584 264 L -572 273 L -559 283 L -542 295 L -523 308 L -504 320 L -482 333 L -466 342 L -437 357 L -405 372 L -373 385 L -343 396 L -318 404 L -282 414 L -247 422 L -208 429 L -169 434 L -134 437 L -116 438 L -29 439 L -18 442 L -10 447 L -10 449 L -6 451 L 0 461 L 2 469 L 2 479 L -4 521 L -13 582 L -13 592 L -9 602 L -8 605 L -4 607 L 3 610 L 15 610 L 25 605 L 35 597 L 52 584 L 70 570 L 122 530 L 140 516 L 157 503 L 172 491 L 184 482 L 210 462 L 228 448 L 267 418 L 285 404 L 302 391 L 338 363 L 342 360 L 344 360 L 345 357 L 349 353 L 352 346 L 352 335 L 347 325 L 335 315 L 318 302 L 305 292 L 287 278 L 274 268 L 260 257 L 248 248 L 230 234 L 217 224 L 199 210 L 183 198 L 168 186 L 152 174 L 134 160 L 120 149 L 103 136 L 77 116 L 59 102 L 46 92 L 32 81 L 19 72 L 13 70 L 5 70 L -4 74 L -11 82 L -13 88 L -13 99 L 0 188 L 2 202 L 2 216 L -2 226 L -8 234 L -14 239 L -24 243 L -29 244 L -118 244 L -160 241 L -196 236 L -230 229 L -264 220 L -300 208 L -332 195 L -367 178 L -386 168 L -406 156 L -430 140 L -448 127 L -462 116 L -473 107 L -483 98 L -491 91 L -504 79 L -516 67 L -522 58 L -525 48 L -525 40 L -522 30 L -517 22 L -510 15 L -502 11 L -494 9 L -486 9 L -473 13 L -462 22 L -445 39 L -437 46 L -423 58 L -406 71 L -391 82 L -365 99 L -342 112 L -319 124 L -294 135 L -271 144 L -240 154 L -208 162 L -176 168 L -143 172 L -108 174 L -74 174 L -75 162 L -83 105 L -84 90 L -82 74 L -77 58 L -69 42 L -60 31 L -56 26 L -42 15 L -32 9 L -16 3 z" stroke-linecap="round" />
</g>
		<g transform="matrix(0.63 0 0 0.63 -195.94 88.44)"  >
<path style="stroke: none; stroke-width: 1; stroke-dasharray: none; stroke-linecap: butt; stroke-dashoffset: 0; stroke-linejoin: miter; stroke-miterlimit: 4; fill: rgb(255,255,255); fill-rule: nonzero; opacity: 1;" vector-effect="non-scaling-stroke"  transform=" translate(674.5, -537.5)" d="M 0 0 L 10 1 L 19 5 L 29 14 L 34 23 L 36 31 L 36 40 L 33 50 L 27 59 L 19 65 L 3 71 L -22 79 L -45 87 L -69 97 L -85 105 L -110 118 L -130 130 L -142 138 L -155 147 L -171 159 L -187 172 L -195 179 L -205 188 L -216 198 L -222 205 L -224 205 L -226 209 L -236 219 L -245 230 L -254 240 L -272 264 L -288 288 L -300 308 L -308 322 L -316 338 L -332 373 L -347 408 L -364 447 L -378 479 L -404 539 L -416 566 L -430 596 L -440 615 L -446 626 L -454 641 L -467 663 L -481 685 L -494 704 L -506 721 L -522 742 L -533 756 L -544 769 L -553 780 L -568 796 L -575 804 L -584 813 L -591 821 L -594 822 L -594 824 L -602 831 L -615 844 L -623 851 L -635 862 L -646 871 L -656 880 L -668 889 L -683 901 L -701 914 L -724 930 L -743 942 L -764 955 L -789 969 L -809 980 L -832 991 L -851 1000 L -887 1015 L -917 1026 L -947 1036 L -978 1045 L -1015 1054 L -1051 1061 L -1089 1067 L -1125 1071 L -1169 1074 L -1216 1075 L -1346 1075 L -1362 1073 L -1371 1068 L -1378 1062 L -1385 1050 L -1385 1029 L -1378 1018 L -1371 1011 L -1361 1006 L -1356 1005 L -1175 1004 L -1140 1002 L -1102 998 L -1063 992 L -1028 985 L -992 976 L -953 964 L -927 955 L -897 943 L -861 927 L -831 912 L -811 901 L -784 885 L -764 872 L -742 857 L -723 843 L -709 832 L -698 823 L -685 812 L -675 803 L -667 796 L -651 781 L -624 754 L -617 746 L -603 731 L -592 717 L -580 703 L -571 691 L -557 672 L -531 633 L -516 608 L -503 584 L -493 565 L -478 533 L -460 492 L -445 457 L -427 416 L -411 379 L -398 349 L -385 320 L -371 291 L -364 279 L -358 268 L -346 248 L -335 232 L -323 215 L -309 197 L -298 184 L -291 175 L -289 175 L -287 171 L -278 162 L -271 154 L -259 142 L -257 142 L -257 140 L -249 133 L -235 120 L -221 109 L -206 97 L -189 85 L -174 75 L -155 63 L -130 49 L -98 33 L -69 21 L -35 9 L -8 1 z" stroke-linecap="round" />
</g>
		<g transform="matrix(0.63 0 0 0.63 -405.31 -341.56)"  >
<path style="stroke: none; stroke-width: 1; stroke-dasharray: none; stroke-linecap: butt; stroke-dashoffset: 0; stroke-linejoin: miter; stroke-miterlimit: 4; fill: rgb(255,255,255); fill-rule: nonzero; opacity: 1;" vector-effect="non-scaling-stroke"  transform=" translate(-339.5, -132.5)" d="M 0 0 L 159 0 L 204 2 L 248 6 L 290 12 L 332 20 L 380 32 L 418 44 L 447 54 L 475 65 L 509 80 L 534 92 L 561 106 L 585 120 L 610 135 L 622 143 L 641 156 L 659 169 L 676 182 L 692 195 L 702 203 L 709 210 L 714 219 L 715 223 L 715 237 L 710 249 L 702 258 L 690 264 L 686 265 L 675 265 L 664 261 L 653 253 L 637 240 L 617 225 L 599 212 L 584 202 L 567 191 L 542 176 L 513 160 L 485 146 L 449 130 L 412 116 L 369 102 L 327 91 L 289 83 L 250 77 L 223 74 L 182 71 L 128 70 L 0 70 L -13 68 L -21 64 L -30 56 L -36 46 L -36 24 L -29 13 L -22 6 L -11 1 z" stroke-linecap="round" />
</g>
		<g transform="matrix(0.63 0 0 0.63 -441.25 -179.69)"  >
<path style="stroke: none; stroke-width: 1; stroke-dasharray: none; stroke-linecap: butt; stroke-dashoffset: 0; stroke-linejoin: miter; stroke-miterlimit: 4; fill: rgb(255,255,255); fill-rule: nonzero; opacity: 1;" vector-effect="non-scaling-stroke"  transform=" translate(-291, -126.5)" d="M 0 0 L 190 0 L 220 2 L 254 6 L 283 11 L 317 19 L 356 31 L 385 42 L 408 52 L 437 66 L 460 79 L 483 93 L 506 109 L 527 125 L 538 134 L 552 146 L 565 158 L 573 165 L 578 170 L 590 183 L 597 190 L 606 202 L 609 209 L 609 226 L 604 237 L 598 244 L 591 249 L 578 253 L 567 252 L 557 248 L 547 239 L 537 229 L 530 221 L 520 211 L 512 204 L 499 192 L 471 170 L 454 158 L 437 147 L 413 133 L 386 119 L 354 105 L 317 92 L 279 82 L 253 77 L 225 73 L 204 71 L 187 70 L 2 69 L -8 66 L -16 60 L -23 52 L -27 45 L -27 24 L -21 14 L -15 7 L -7 2 z" stroke-linecap="round" />
</g>
		<g transform="matrix(0.63 0 0 0.63 639.38 331.88)"  >
<path style="stroke: none; stroke-width: 1; stroke-dasharray: none; stroke-linecap: butt; stroke-dashoffset: 0; stroke-linejoin: miter; stroke-miterlimit: 4; fill: rgb(255,255,255); fill-rule: nonzero; opacity: 1;" vector-effect="non-scaling-stroke"  transform=" translate(0, 0)" d="M 0 0" stroke-linecap="round" />
</g>
		<g transform="matrix(0.63 0 0 0.63 639.38 305.63)"  >
<path style="stroke: none; stroke-width: 1; stroke-dasharray: none; stroke-linecap: butt; stroke-dashoffset: 0; stroke-linejoin: miter; stroke-miterlimit: 4; fill: rgb(255,255,255); fill-rule: nonzero; opacity: 1;" vector-effect="non-scaling-stroke"  transform=" translate(0, 0)" d="M 0 0" stroke-linecap="round" />
</g>
</g>
</g>
</svg>